<?xml version="1.0" encoding="iso-8859-1"?>
<!-- Generator: Adobe Illustrator 19.0.0, SVG Export Plug-In . SVG Version: 6.00 Build 0)  -->
<svg version="1.1" id="Capa_1" xmlns="http://www.w3.org/2000/svg" xmlns:xlink="http://www.w3.org/1999/xlink" x="0px" y="0px"
	 viewBox="0 0 490 490" style="enable-background:new 0 0 490 490;" xml:space="preserve">
<g>
	<path d="M153.05,302.033h36.861v29.174c0,30.341,24.673,55.014,55.014,55.014c30.341,0,55.014-24.673,55.014-55.014v-29.174H336.8
		v-30.625H153.05V302.033z M269.315,331.208c0,13.443-10.946,24.389-24.389,24.389s-24.389-10.946-24.389-24.389v-29.174h48.779
		V331.208z"/>
	<circle cx="165.72" cy="175.209" r="42.642"/>
	<polygon points="350.259,119.719 264.769,175.212 350.273,230.689 366.932,204.999 321.024,175.212 366.947,145.409 	"/>
	<path d="M420.914,0H69.086C30.999,0,0,30.999,0,69.086v351.829C0,459.001,30.999,490,69.086,490h351.829
		C459.001,490,490,459.001,490,420.914V69.086C490,30.999,459.001,0,420.914,0z M459.375,420.914
		c0,21.204-17.257,38.461-38.461,38.461H69.086c-21.204,0-38.461-17.257-38.461-38.461V69.086c0-21.204,17.257-38.461,38.461-38.461
		h351.829c21.204,0,38.461,17.257,38.461,38.461V420.914z"/>
</g>
<g>
</g>
<g>
</g>
<g>
</g>
<g>
</g>
<g>
</g>
<g>
</g>
<g>
</g>
<g>
</g>
<g>
</g>
<g>
</g>
<g>
</g>
<g>
</g>
<g>
</g>
<g>
</g>
<g>
</g>
</svg>
