<svg id="visual" viewBox="0 0 900 600" width="900" height="600" xmlns="http://www.w3.org/2000/svg" xmlns:xlink="http://www.w3.org/1999/xlink" version="1.1"><g fill="rgba(157,156,156,0.397)"><circle r="20" cx="171" cy="354"></circle><circle r="7" cx="794" cy="359"></circle><circle r="9" cx="403" cy="487"></circle><circle r="6" cx="713" cy="51"></circle><circle r="18" cx="731" cy="356"></circle><circle r="17" cx="254" cy="145"></circle><circle r="14" cx="309" cy="247"></circle><circle r="16" cx="441" cy="549"></circle><circle r="8" cx="872" cy="341"></circle><circle r="12" cx="70" cy="163"></circle><circle r="15" cx="606" cy="250"></circle><circle r="15" cx="580" cy="351"></circle><circle r="16" cx="261" cy="284"></circle><circle r="7" cx="712" cy="533"></circle><circle r="6" cx="433" cy="337"></circle><circle r="10" cx="817" cy="216"></circle><circle r="7" cx="294" cy="555"></circle><circle r="14" cx="224" cy="211"></circle><circle r="7" cx="786" cy="285"></circle><circle r="11" cx="153" cy="209"></circle><circle r="11" cx="836" cy="468"></circle><circle r="14" cx="571" cy="532"></circle><circle r="18" cx="98" cy="221"></circle><circle r="18" cx="263" cy="233"></circle><circle r="10" cx="101" cy="410"></circle><circle r="15" cx="670" cy="321"></circle><circle r="14" cx="265" cy="477"></circle><circle r="17" cx="626" cy="304"></circle><circle r="18" cx="246" cy="336"></circle><circle r="14" cx="852" cy="302"></circle><circle r="18" cx="632" cy="183"></circle><circle r="17" cx="146" cy="503"></circle><circle r="7" cx="346" cy="474"></circle><circle r="11" cx="298" cy="97"></circle><circle r="7" cx="689" cy="265"></circle><circle r="16" cx="40" cy="56"></circle><circle r="18" cx="77" cy="372"></circle><circle r="14" cx="133" cy="463"></circle><circle r="18" cx="834" cy="372"></circle><circle r="10" cx="204" cy="145"></circle><circle r="18" cx="39" cy="191"></circle><circle r="7" cx="394" cy="541"></circle><circle r="7" cx="152" cy="420"></circle><circle r="6" cx="653" cy="374"></circle><circle r="11" cx="646" cy="37"></circle><circle r="7" cx="337" cy="25"></circle><circle r="11" cx="240" cy="437"></circle><circle r="18" cx="200" cy="505"></circle><circle r="8" cx="680" cy="119"></circle><circle r="6" cx="383" cy="204"></circle><circle r="12" cx="685" cy="174"></circle><circle r="14" cx="673" cy="545"></circle><circle r="11" cx="547" cy="394"></circle><circle r="14" cx="242" cy="378"></circle><circle r="14" cx="547" cy="578"></circle><circle r="11" cx="426" cy="281"></circle><circle r="12" cx="346" cy="399"></circle><circle r="14" cx="760" cy="546"></circle><circle r="12" cx="431" cy="414"></circle><circle r="12" cx="128" cy="295"></circle><circle r="18" cx="121" cy="102"></circle><circle r="17" cx="746" cy="440"></circle><circle r="8" cx="772" cy="207"></circle><circle r="12" cx="449" cy="471"></circle><circle r="6" cx="791" cy="512"></circle><circle r="9" cx="543" cy="60"></circle><circle r="10" cx="72" cy="520"></circle><circle r="18" cx="779" cy="109"></circle><circle r="14" cx="494" cy="473"></circle><circle r="16" cx="354" cy="142"></circle><circle r="13" cx="282" cy="412"></circle><circle r="12" cx="591" cy="566"></circle><circle r="12" cx="573" cy="133"></circle><circle r="13" cx="494" cy="138"></circle><circle r="18" cx="60" cy="112"></circle><circle r="11" cx="519" cy="345"></circle><circle r="7" cx="392" cy="374"></circle><circle r="8" cx="555" cy="212"></circle><circle r="11" cx="84" cy="306"></circle><circle r="14" cx="100" cy="562"></circle><circle r="16" cx="393" cy="66"></circle><circle r="10" cx="468" cy="272"></circle><circle r="15" cx="449" cy="158"></circle><circle r="16" cx="781" cy="50"></circle><circle r="9" cx="753" cy="485"></circle><circle r="18" cx="567" cy="458"></circle><circle r="10" cx="501" cy="405"></circle><circle r="7" cx="734" cy="92"></circle><circle r="10" cx="866" cy="34"></circle><circle r="11" cx="829" cy="519"></circle><circle r="11" cx="189" cy="81"></circle><circle r="12" cx="412" cy="176"></circle><circle r="16" cx="34" cy="567"></circle><circle r="15" cx="361" cy="261"></circle><circle r="16" cx="345" cy="71"></circle><circle r="9" cx="158" cy="550"></circle><circle r="10" cx="318" cy="519"></circle><circle r="13" cx="874" cy="401"></circle><circle r="17" cx="155" cy="142"></circle><circle r="17" cx="455" cy="58"></circle><circle r="16" cx="121" cy="22"></circle><circle r="18" cx="252" cy="550"></circle><circle r="17" cx="751" cy="254"></circle><circle r="14" cx="827" cy="30"></circle><circle r="10" cx="855" cy="95"></circle><circle r="6" cx="515" cy="523"></circle><circle r="14" cx="758" cy="158"></circle><circle r="6" cx="348" cy="557"></circle><circle r="16" cx="870" cy="196"></circle><circle r="17" cx="20" cy="453"></circle><circle r="14" cx="622" cy="398"></circle><circle r="14" cx="829" cy="172"></circle><circle r="16" cx="432" cy="120"></circle><circle r="6" cx="717" cy="394"></circle><circle r="15" cx="638" cy="449"></circle><circle r="12" cx="662" cy="213"></circle><circle r="18" cx="726" cy="309"></circle><circle r="12" cx="869" cy="523"></circle><circle r="13" cx="728" cy="574"></circle><circle r="12" cx="34" cy="310"></circle><circle r="8" cx="468" cy="380"></circle><circle r="18" cx="201" cy="578"></circle><circle r="9" cx="752" cy="20"></circle><circle r="17" cx="296" cy="193"></circle><circle r="18" cx="490" cy="190"></circle><circle r="15" cx="195" cy="420"></circle><circle r="17" cx="822" cy="116"></circle><circle r="12" cx="475" cy="524"></circle><circle r="18" cx="542" cy="297"></circle><circle r="13" cx="636" cy="562"></circle><circle r="13" cx="591" cy="176"></circle><circle r="15" cx="876" cy="136"></circle><circle r="8" cx="414" cy="229"></circle><circle r="9" cx="865" cy="264"></circle><circle r="18" cx="501" cy="580"></circle><circle r="15" cx="731" cy="189"></circle><circle r="16" cx="588" cy="40"></circle><circle r="6" cx="188" cy="316"></circle><circle r="18" cx="682" cy="468"></circle><circle r="10" cx="379" cy="314"></circle><circle r="18" cx="678" cy="78"></circle><circle r="8" cx="538" cy="163"></circle><circle r="7" cx="274" cy="47"></circle><circle r="13" cx="344" cy="204"></circle><circle r="8" cx="594" cy="492"></circle><circle r="9" cx="226" cy="254"></circle><circle r="12" cx="801" cy="576"></circle><circle r="12" cx="808" cy="417"></circle><circle r="12" cx="115" cy="142"></circle><circle r="13" cx="500" cy="62"></circle><circle r="9" cx="322" cy="367"></circle><circle r="16" cx="124" cy="346"></circle><circle r="7" cx="215" cy="34"></circle><circle r="9" cx="28" cy="517"></circle><circle r="14" cx="310" cy="448"></circle><circle r="9" cx="42" cy="256"></circle><circle r="12" cx="610" cy="87"></circle><circle r="15" cx="85" cy="67"></circle><circle r="7" cx="91" cy="482"></circle><circle r="13" cx="822" cy="74"></circle><circle r="14" cx="184" cy="252"></circle><circle r="9" cx="225" cy="104"></circle><circle r="14" cx="766" cy="395"></circle><circle r="11" cx="181" cy="177"></circle><circle r="10" cx="162" cy="24"></circle><circle r="13" cx="314" cy="314"></circle><circle r="12" cx="627" cy="130"></circle><circle r="14" cx="50" cy="403"></circle><circle r="7" cx="141" cy="252"></circle><circle r="18" cx="478" cy="312"></circle><circle r="11" cx="526" cy="447"></circle><circle r="13" cx="721" cy="230"></circle><circle r="13" cx="22" cy="134"></circle><circle r="8" cx="507" cy="252"></circle><circle r="16" cx="586" cy="418"></circle><circle r="13" cx="533" cy="115"></circle><circle r="13" cx="720" cy="145"></circle><circle r="13" cx="878" cy="472"></circle><circle r="16" cx="457" cy="224"></circle><circle r="12" cx="202" cy="379"></circle><circle r="9" cx="684" cy="417"></circle><circle r="6" cx="383" cy="26"></circle><circle r="8" cx="472" cy="437"></circle><circle r="12" cx="22" cy="351"></circle><circle r="13" cx="313" cy="134"></circle><circle r="17" cx="585" cy="286"></circle><circle r="17" cx="63" cy="444"></circle><circle r="12" cx="101" cy="263"></circle><circle r="9" cx="382" cy="110"></circle><circle r="9" cx="860" cy="580"></circle><circle r="6" cx="547" cy="253"></circle><circle r="13" cx="386" cy="449"></circle><circle r="15" cx="537" cy="489"></circle><circle r="6" cx="657" cy="506"></circle><circle r="13" cx="816" cy="321"></circle><circle r="6" cx="530" cy="20"></circle><circle r="7" cx="648" cy="250"></circle><circle r="14" cx="211" cy="465"></circle><circle r="12" cx="474" cy="99"></circle><circle r="14" cx="404" cy="580"></circle><circle r="12" cx="149" cy="68"></circle><circle r="18" cx="63" cy="21"></circle><circle r="12" cx="121" cy="184"></circle><circle r="15" cx="788" cy="463"></circle><circle r="11" cx="285" cy="352"></circle><circle r="11" cx="826" cy="255"></circle><circle r="16" cx="692" cy="354"></circle><circle r="17" cx="768" cy="321"></circle><circle r="17" cx="625" cy="347"></circle><circle r="11" cx="475" cy="21"></circle><circle r="10" cx="423" cy="34"></circle><circle r="9" cx="358" cy="350"></circle><circle r="16" cx="221" cy="293"></circle><circle r="6" cx="615" cy="525"></circle><circle r="17" cx="798" cy="148"></circle><circle r="7" cx="243" cy="511"></circle><circle r="7" cx="367" cy="507"></circle><circle r="17" cx="570" cy="92"></circle><circle r="6" cx="713" cy="493"></circle><circle r="9" cx="24" cy="92"></circle></g></svg>